<svg xmlns="http://www.w3.org/2000/svg" xmlns:xlink="http://www.w3.org/1999/xlink" width="222" height="222" viewBox="0 0 222 222"><defs><style>.a{fill:#fff;}.b{fill:#2c2e3e;}.c{fill:url(#c);}.d{font-size:40px;font-family:Poppins-SemiBold, Poppins;font-weight:600;}.e{font-size:14px;font-family:Poppins-Regular, Poppins;font-weight:400;}.f{filter:url(#a);}</style><filter id="a" x="0" y="0" width="222" height="222" filterUnits="userSpaceOnUse"><feOffset input="SourceAlpha"/><feGaussianBlur stdDeviation="10" result="b"/><feFlood flood-opacity="0.161"/><feComposite operator="in" in2="b"/><feComposite in="SourceGraphic"/></filter><radialGradient id="c" cx="0" cy="1" r="1.009" gradientTransform="matrix(-0.008, -1, 1.158, -0.01, -1.158, 1.01)" gradientUnits="objectBoundingBox"><stop offset="0" stop-color="#188cc1"/><stop offset="1" stop-color="#51c8fe"/></radialGradient></defs><g transform="translate(-741 -537)"><g class="f" transform="matrix(1, 0, 0, 1, 741, 537)"><circle class="a" cx="81" cy="81" r="81" transform="translate(30 30)"/></g><circle class="a" cx="81" cy="81" r="81" transform="translate(771 567)"/><path class="b" d="M57,115v-6a1,1,0,0,1,2,0v6a1,1,0,0,1-2,0Zm28.634-7.137-3-5.2a1,1,0,1,1,1.732-1l3,5.2a1,1,0,1,1-1.732,1ZM29,108.229a1,1,0,0,1-.365-1.366l3-5.2a1,1,0,1,1,1.732,1l-3,5.2a1,1,0,0,1-1.366.366Zm77.864-20.864-5.2-3a1,1,0,1,1,1-1.732l5.2,3a1,1,0,1,1-1,1.732ZM7.771,87a1,1,0,0,1,.366-1.366l5.2-3a1,1,0,1,1,1,1.732l-5.2,3A1,1,0,0,1,7.771,87ZM109,59a1,1,0,0,1,0-2h6a1,1,0,0,1,0,2ZM1,59a1,1,0,0,1,0-2H7a1,1,0,0,1,0,2ZM101.3,33a1,1,0,0,1,.366-1.366l5.2-3a1,1,0,1,1,1,1.732l-5.2,3A1,1,0,0,1,101.3,33Zm-87.969.365-5.2-3a1,1,0,1,1,1-1.732l5.2,3a1,1,0,1,1-1,1.732ZM83,14.7a1,1,0,0,1-.365-1.366l3-5.2a1,1,0,1,1,1.732,1l-3,5.2A1,1,0,0,1,83,14.7Zm-51.366-.366-3-5.2a1,1,0,1,1,1.732-1l3,5.2a1,1,0,1,1-1.732,1ZM57,7V1a1,1,0,0,1,2,0V7a1,1,0,0,1-2,0Z" transform="translate(794 590)"/><path class="c" d="M3627.269-749.24h0A29.069,29.069,0,0,0,3602-764c-.332,0-.668.006-1,.017v-29.008c.368-.006.694-.009,1-.009a58.133,58.133,0,0,1,15.76,2.167,57.654,57.654,0,0,1,14.109,6.106,58.3,58.3,0,0,1,20.9,21.659l-25.5,13.828Z" transform="translate(-2750 1383)"/><text class="d" transform="translate(852 656)"><tspan x="-13.049" y="0">2</tspan><tspan class="e" y="0"> </tspan><tspan class="e"><tspan x="-16.128" y="15">hour</tspan></tspan></text></g></svg>