<svg xmlns="http://www.w3.org/2000/svg" width="270" height="56" viewBox="0 0 270 56"><defs><style>.a{fill:#fff;}.b{fill:#eff4f9;}.c,.d{fill:#4db05b;}.d{font-size:40px;font-family:Poppins-Medium, Poppins;font-weight:500;}</style></defs><g transform="translate(-323 -19)"><path class="a" d="M0,0H2.754L2.732,30.179H0ZM151.336,30.147v-3.1c-.1.11-.193.207-.279.292a10.015,10.015,0,0,1-13.894,0,9.073,9.073,0,0,1-2.869-6.753,9.08,9.08,0,0,1,2.878-6.751,10.045,10.045,0,0,1,13.894,0q.128.147.279.314l0-3.1h2.583l-.013,19.094Zm-12.517-14.6a7.063,7.063,0,0,0-.006,10.194,7.581,7.581,0,0,0,10.5.005,7.064,7.064,0,0,0,.006-10.2,7.576,7.576,0,0,0-10.5,0ZM129.4,30.138l.006-9.588a7.1,7.1,0,0,0-2.106-5.09,6.942,6.942,0,0,0-5.165-2.137,7.054,7.054,0,0,0-5.188,2.1,6.917,6.917,0,0,0-2.112,5.077l-.006,9.63H112.2l.006-9.547a6.921,6.921,0,0,0-2.041-5.127,7.046,7.046,0,0,0-5.143-2.035,7.268,7.268,0,0,0-5.254,2.112A6.426,6.426,0,0,0,97.725,20.3v.335l.016,9.484-2.583,0,.013-19.05h2.583l0,3.055c.1-.111.2-.215.3-.313a10.045,10.045,0,0,1,13.883.006,10.189,10.189,0,0,1,1.634,2.094,10.417,10.417,0,0,1,1.68-2.093,10.019,10.019,0,0,1,13.873.017,9.073,9.073,0,0,1,2.869,6.752l-.006,9.547Zm-46.519-.021a9.591,9.591,0,0,1-6.94-2.8,9.077,9.077,0,0,1-2.869-6.752,9.072,9.072,0,0,1,2.878-6.751,10.043,10.043,0,0,1,13.894-.005l.838,1.006-7.818,7.575-1.828-1.78,6.073-5.9a7.61,7.61,0,0,0-9.514.814,7.064,7.064,0,0,0-.006,10.2,7.58,7.58,0,0,0,10.5,0,6.821,6.821,0,0,0,2.177-5.065H92.7a9.034,9.034,0,0,1-2.868,6.658,9.614,9.614,0,0,1-6.948,2.8Zm-21.675-.01a9.583,9.583,0,0,1-6.938-2.8A9.063,9.063,0,0,1,51.4,20.557a9.07,9.07,0,0,1,2.878-6.751,10.043,10.043,0,0,1,13.892,0l.84,1-7.818,7.577L59.363,20.6l6.074-5.9a7.609,7.609,0,0,0-9.515.812,7.064,7.064,0,0,0-.006,10.2,7.58,7.58,0,0,0,10.5,0A6.813,6.813,0,0,0,68.6,20.647H71.03a9.028,9.028,0,0,1-2.866,6.658,9.619,9.619,0,0,1-6.95,2.8Zm-15.2-.006,0-3.1c-.1.113-.2.21-.281.294A10.016,10.016,0,0,1,31.84,27.3a9.073,9.073,0,0,1-2.869-6.752A9.079,9.079,0,0,1,31.849,13.8a10.045,10.045,0,0,1,13.894,0c.085.1.179.2.279.314l.006-9.254h2.583L48.595,30.1ZM33.494,15.5a7.067,7.067,0,0,0-.006,10.2,7.58,7.58,0,0,0,10.5,0A7.064,7.064,0,0,0,44,15.508a7.251,7.251,0,0,0-5.25-2.117h-.006A7.264,7.264,0,0,0,33.494,15.5ZM24.14,30.09l.006-9.546A6.931,6.931,0,0,0,22.1,15.412a7.048,7.048,0,0,0-5.143-2.03,7.243,7.243,0,0,0-5.253,2.111,6.42,6.42,0,0,0-2.048,4.773V20.6l.014,9.484H7.094l.013-19.052H9.688V14.09c.1-.113.2-.216.3-.314a9.585,9.585,0,0,1,6.932-2.782,9.593,9.593,0,0,1,6.94,2.8,9.073,9.073,0,0,1,2.869,6.753l-.006,9.546Z" transform="translate(390.209 32.084)"/><path class="b" d="M12.364,15.084,15.2,17.857l12.145-11.8-1.3-1.567A14.951,14.951,0,0,0,15.255.142,14.87,14.87,0,0,0,4.471,4.489,14.167,14.167,0,0,0,0,15.006,14.164,14.164,0,0,0,4.448,25.532,14.87,14.87,0,0,0,15.222,29.9a14.9,14.9,0,0,0,10.8-4.363,14.092,14.092,0,0,0,4.456-10.37l-3.633.006a10.765,10.765,0,0,1-3.528,7.883,11.256,11.256,0,0,1-8.159,3.288,11.243,11.243,0,0,1-8.152-3.3,10.68,10.68,0,0,1-3.367-7.931A10.724,10.724,0,0,1,7.025,7.148a11.251,11.251,0,0,1,8.158-3.287A11.227,11.227,0,0,1,21.8,5.889Z" transform="translate(323.002 32.156)"/><path class="c" d="M31.1,15.084l2.838,2.773L46.08,6.058l-1.3-1.567A14.951,14.951,0,0,0,33.987.142,14.869,14.869,0,0,0,23.2,4.489,14.166,14.166,0,0,0,18.73,15.006a14.163,14.163,0,0,0,4.451,10.526A14.869,14.869,0,0,0,33.955,29.9a14.9,14.9,0,0,0,10.8-4.363,14.092,14.092,0,0,0,4.456-10.37l-3.633.006a10.765,10.765,0,0,1-3.528,7.883,11.256,11.256,0,0,1-8.159,3.288,11.244,11.244,0,0,1-8.152-3.3,10.681,10.681,0,0,1-3.367-7.931,10.725,10.725,0,0,1,3.385-7.959,11.251,11.251,0,0,1,8.159-3.287,11.226,11.226,0,0,1,6.615,2.028Z" transform="translate(331.193 32.156)"/><path class="c" d="M31.1,15.084l2.838,2.773L46.08,6.058l-1.3-1.567A14.951,14.951,0,0,0,33.987.142,14.869,14.869,0,0,0,23.2,4.489,14.166,14.166,0,0,0,18.73,15.006a14.163,14.163,0,0,0,4.451,10.526A14.869,14.869,0,0,0,33.955,29.9a14.9,14.9,0,0,0,10.8-4.363,14.092,14.092,0,0,0,4.456-10.37l-3.633.006a10.765,10.765,0,0,1-3.528,7.883,11.256,11.256,0,0,1-8.159,3.288,11.244,11.244,0,0,1-8.152-3.3,10.681,10.681,0,0,1-3.367-7.931,10.725,10.725,0,0,1,3.385-7.959,11.251,11.251,0,0,1,8.159-3.287,11.226,11.226,0,0,1,6.615,2.028Z" transform="translate(331.193 32.156)"/><text class="d" transform="translate(552 61)"><tspan x="0" y="0">CI</tspan></text></g></svg>