<svg xmlns="http://www.w3.org/2000/svg" width="189.225" height="33" viewBox="0 0 189.225 33">
  <g id="IndeemaCI_logo_2" transform="translate(-150.775 -21)">
    <g id="Group_30" data-name="Group 30">
      <rect id="Rectangle_86" data-name="Rectangle 86" width="28" height="14" rx="4" transform="translate(312 33)" fill="#df0035"/>
      <text id="beta" transform="translate(326 43)" fill="#fff" font-size="9" font-family="Comfortaa-Bold, Comfortaa" font-weight="700" letter-spacing="-0.05em"><tspan x="-10.125" y="0">beta</tspan></text>
    </g>
    <g id="logo2" transform="translate(150.777 28.121)">
      <g id="logo" transform="translate(-0.002 -0.007)">
        <path id="indeema" d="M0,0H1.621L1.608,17.768H0ZM89.1,17.749V15.926c-.059.065-.113.122-.164.172a5.9,5.9,0,0,1-8.18,0,5.342,5.342,0,0,1-1.689-3.976A5.346,5.346,0,0,1,80.762,8.15a5.914,5.914,0,0,1,8.18,0q.075.087.164.185l0-1.824h1.521l-.008,11.241Zm-7.37-8.594a4.158,4.158,0,0,0,0,6,4.464,4.464,0,0,0,6.184,0,4.159,4.159,0,0,0,0-6,4.461,4.461,0,0,0-6.184,0Zm-5.544,8.588,0-5.645a4.182,4.182,0,0,0-1.24-3,4.087,4.087,0,0,0-3.041-1.258,4.153,4.153,0,0,0-3.055,1.237,4.073,4.073,0,0,0-1.244,2.989l0,5.67H66.061l0-5.621a4.075,4.075,0,0,0-1.2-3.019,4.148,4.148,0,0,0-3.028-1.2,4.279,4.279,0,0,0-3.093,1.244,3.783,3.783,0,0,0-1.206,2.809v.2l.009,5.584-1.521,0,.008-11.216h1.521l0,1.8c.059-.065.118-.126.177-.184a5.914,5.914,0,0,1,8.174,0,6,6,0,0,1,.962,1.233,6.133,6.133,0,0,1,.989-1.232,5.9,5.9,0,0,1,8.168.01,5.342,5.342,0,0,1,1.689,3.975l0,5.621ZM48.8,17.732a5.647,5.647,0,0,1-4.086-1.647,5.344,5.344,0,0,1-1.689-3.975,5.341,5.341,0,0,1,1.694-3.975,5.913,5.913,0,0,1,8.18,0l.493.592-4.6,4.46-1.076-1.048,3.576-3.475a4.48,4.48,0,0,0-5.6.479,4.159,4.159,0,0,0,0,6,4.463,4.463,0,0,0,6.184,0,4.016,4.016,0,0,0,1.282-2.982h1.433a5.319,5.319,0,0,1-1.688,3.92,5.66,5.66,0,0,1-4.091,1.65Zm-12.762-.006a5.642,5.642,0,0,1-4.085-1.647A5.336,5.336,0,0,1,30.262,12.1a5.34,5.34,0,0,1,1.694-3.975,5.913,5.913,0,0,1,8.179,0l.494.591-4.6,4.461-1.077-1.049,3.576-3.474a4.48,4.48,0,0,0-5.6.478,4.159,4.159,0,0,0,0,6,4.463,4.463,0,0,0,6.184,0,4.011,4.011,0,0,0,1.282-2.982h1.432a5.315,5.315,0,0,1-1.688,3.92,5.663,5.663,0,0,1-4.092,1.649Zm-8.947,0,0-1.825c-.059.066-.115.123-.165.173a5.9,5.9,0,0,1-8.18,0A5.342,5.342,0,0,1,17.057,12.1a5.345,5.345,0,0,1,1.694-3.975,5.914,5.914,0,0,1,8.18,0c.05.058.105.119.165.185l0-5.448H28.62l-.01,14.864Zm-7.37-8.6a4.161,4.161,0,0,0,0,6,4.462,4.462,0,0,0,6.184,0,4.159,4.159,0,0,0,0-6,4.269,4.269,0,0,0-3.091-1.247h0A4.277,4.277,0,0,0,19.72,9.127Zm-5.508,8.589,0-5.62a4.081,4.081,0,0,0-1.2-3.021A4.149,4.149,0,0,0,9.986,7.879,4.264,4.264,0,0,0,6.894,9.122a3.78,3.78,0,0,0-1.206,2.81v.2L5.7,17.712H4.176L4.184,6.495H5.7V8.3c.059-.066.118-.127.177-.185A5.643,5.643,0,0,1,9.962,6.473a5.648,5.648,0,0,1,4.086,1.648A5.342,5.342,0,0,1,15.737,12.1l0,5.62Z" transform="translate(39.684)" fill="#fff"/>
        <path id="e_копия_5" data-name="e копия 5" d="M7.278,8.939l1.671,1.633L16.1,3.625,15.333,2.7A8.8,8.8,0,0,0,8.98.142,8.755,8.755,0,0,0,2.631,2.7,8.341,8.341,0,0,0,0,8.893a8.339,8.339,0,0,0,2.62,6.2,8.755,8.755,0,0,0,6.343,2.57,8.771,8.771,0,0,0,6.359-2.569,8.3,8.3,0,0,0,2.624-6.105l-2.139,0a6.338,6.338,0,0,1-2.077,4.641,6.627,6.627,0,0,1-4.8,1.936,6.62,6.62,0,0,1-4.8-1.944A6.288,6.288,0,0,1,2.142,8.953,6.314,6.314,0,0,1,4.135,4.267a6.624,6.624,0,0,1,4.8-1.935,6.61,6.61,0,0,1,3.895,1.194Z" transform="translate(0.002 -0.016)" fill="#fff"/>
        <path id="e_копия_5-2" data-name="e копия 5" d="M26.011,8.939l1.671,1.633,7.151-6.947L34.066,2.7A8.8,8.8,0,0,0,27.713.142,8.754,8.754,0,0,0,21.364,2.7,8.34,8.34,0,0,0,18.73,8.893a8.339,8.339,0,0,0,2.62,6.2,8.754,8.754,0,0,0,6.343,2.57,8.771,8.771,0,0,0,6.359-2.569,8.3,8.3,0,0,0,2.624-6.105l-2.139,0a6.338,6.338,0,0,1-2.077,4.641,6.912,6.912,0,0,1-9.6-.009,6.288,6.288,0,0,1-1.983-4.669,6.314,6.314,0,0,1,1.993-4.686,6.938,6.938,0,0,1,8.7-.742Z" transform="translate(-2.879 -0.016)" fill="#4db05b"/>
      </g>
    </g>
    <text id="CI" transform="translate(285 46)" fill="#5bb057" font-size="24" font-family="Poppins-Medium, Poppins" font-weight="500"><tspan x="0" y="0">CI</tspan></text>
  </g>
</svg>
