<svg xmlns="http://www.w3.org/2000/svg" width="351.744" height="265.351" viewBox="0 0 351.744 265.351">
  <g id="IndeemaCI_logo_1" transform="translate(-355.256 -394.948)">
    <path id="Subtraction_18" data-name="Subtraction 18" d="M4242.5,4443h-71.516a44.617,44.617,0,0,0,0-37H4242.5a18.5,18.5,0,0,1,0,37Z" transform="translate(-3554 -4004)" fill="#df0035"/>
    <path id="Path_2907" data-name="Path 2907" d="M2.065-20.977h.161q1,.22,1,.952v7.192a7.643,7.643,0,0,1,5.435-2.329,7.628,7.628,0,0,1,5.3,2.212A7.592,7.592,0,0,1,16.23-7.588,7.515,7.515,0,0,1,12.188-.879,7.471,7.471,0,0,1,8.818,0H8.379a7.7,7.7,0,0,1-5.7-2.871,8.269,8.269,0,0,1-1.611-5.1V-20.024Q1.069-20.757,2.065-20.977ZM3.223-7.749v.278q0,3.384,3.545,5.039a6.176,6.176,0,0,0,1.714.278h.337q3.3,0,4.98-3.545a7.1,7.1,0,0,0,.278-1.655V-7.69q0-3.369-3.6-5.039a7.5,7.5,0,0,0-1.714-.278H8.54q-3.3,0-4.98,3.486A5.52,5.52,0,0,0,3.223-7.749Zm22.749-7.266A7.455,7.455,0,0,1,32.71-10.9a7.605,7.605,0,0,1,.82,3.5v.278q-.19,1.1-1.04,1.1H20.933a5.462,5.462,0,0,0,2.783,3.34,6.605,6.605,0,0,0,2.358.483,6.669,6.669,0,0,0,2.915-.82h.322q.981.19.981,1v.161q0,1.348-3.94,1.86h-.381A7.4,7.4,0,0,1,19.5-3.779a7.655,7.655,0,0,1-.981-3.735,7.447,7.447,0,0,1,3.9-6.562A8.042,8.042,0,0,1,25.972-15.015ZM20.757-8.159H31.289a5.453,5.453,0,0,0-1.318-2.915,5.28,5.28,0,0,0-3.56-1.7h-.6A5.047,5.047,0,0,0,21.475-10.2,5.549,5.549,0,0,0,20.757-8.159Zm18.3-12.2h.205q.967.205.967.864v4.834h2.212l.483-.059q.747,0,1.011,1.084,0,.732-.908,1.069l-.806-.059H40.225v7.9q0,2.065,1.348,2.534l1.23.1h.6q.7,0,.908,1.025v.044Q44.136,0,43.286,0H42.158Q39.595,0,38.35-2.8a5.313,5.313,0,0,1-.22-1.611v-8.218H37.061l-.864.059q-.908-.322-.908-1.069.176-1.025.967-1.025v-.059l.542.059H38.13v-4.512Q38.262-20.361,39.053-20.361Zm14.473,5.376q4.248,0,6.724,4.16a8.407,8.407,0,0,1,.762,3.5V-.981q0,.806-1.04.981h-.059a1.111,1.111,0,0,1-1.04-.82V-.879l.059-1.362V-2.3A7.443,7.443,0,0,1,53.73,0h-.425Q49.5,0,46.948-3.823a8.247,8.247,0,0,1-.923-3.721q0-4.175,4.1-6.621A7.952,7.952,0,0,1,53.525-14.985ZM48.164-7.6v.161A5.274,5.274,0,0,0,51.445-2.52a5.489,5.489,0,0,0,1.86.381h.425a5.235,5.235,0,0,0,4.5-2.725,5.508,5.508,0,0,0,.645-2.461v-.22a5.238,5.238,0,0,0-3.105-4.819,5.447,5.447,0,0,0-2.241-.483h-.059q-3.311,0-4.98,3.442A6.455,6.455,0,0,0,48.164-7.6Z" transform="translate(632 429)" fill="#fff"/>
    <g id="Group_11" data-name="Group 11" transform="translate(360.459 394.948)">
      <g id="Group_1" data-name="Group 1" transform="translate(0)">
        <path id="Path_1" data-name="Path 1" d="M569.36,308.248a40.049,40.049,0,0,1-9.454,33.126,39.238,39.238,0,0,1-22.7,12.3h-32.16c-15.879-.363-30.719,4.136-39.723,15.143a43.719,43.719,0,0,0-4.728,7.572,58.538,58.538,0,0,0-2.841,44.485,46.5,46.5,0,0,0,3.783,8.518,44.658,44.658,0,0,0,7.567,9.465c9.9,9.291,26.722,11.475,41.614,10.411,28.05.8,56.116-.631,84.174-.946.3,13.782-3.653,26.849-13.242,35.02a35.781,35.781,0,0,1-12.294,6.626c-11.358,3.9-24.212,5.219-36.885,4.732H474.783c-21.128-5.044-39.923-16.239-52.963-33.126-28.858-37.369-15.358-83.87-9.459-99.381,5.162-13.569,11.928-23.241,17.97-29.341,12.971-13.1,30.308-22.612,49.181-24.607H569.36Z" transform="translate(-404.014 -281.746)" fill="#4db05b" fill-rule="evenodd"/>
        <path id="Path_2" data-name="Path 2" d="M615.984,344.877a3.993,3.993,0,0,1,.946,2.839c.009,3.958-.606,62.1-.946,92.756-.437,14.938-5.114,30.533-16.078,38.805a34.148,34.148,0,0,1-25.537,6.626H517.616c21.421-.759,38.733-11.184,45.4-26.5a39.274,39.274,0,0,0,2.838-19.876V387.469a43.6,43.6,0,0,1,10.4-29.341c10.22-11.753,34.473-14.071,35.939-14.2A4.637,4.637,0,0,1,615.984,344.877Z" transform="translate(-376.236 -272.944)" fill="#2c2e3e" fill-rule="evenodd"/>
        <path id="Path_3" data-name="Path 3" d="M582.59,287a25.534,25.534,0,1,1-.007,0Z" transform="translate(-366.487 -287)" fill="#2c2e3e" fill-rule="evenodd"/>
      </g>
    </g>
    <g id="logo2" transform="translate(355.259 626.121)">
      <g id="logo" transform="translate(-0.002 -0.007)">
        <path id="indeema" d="M0,0H3.119L3.094,34.185H0ZM171.422,34.148V30.64c-.113.125-.218.234-.316.331a11.344,11.344,0,0,1-15.738,0,10.278,10.278,0,0,1-3.25-7.65,10.286,10.286,0,0,1,3.26-7.647,11.378,11.378,0,0,1,15.738,0q.145.167.316.356l0-3.509h2.926l-.015,21.628ZM157.243,17.615a8,8,0,0,0-.007,11.547,8.588,8.588,0,0,0,11.9.006,8,8,0,0,0,.007-11.549,8.582,8.582,0,0,0-11.9,0ZM146.577,34.138l.007-10.86a8.047,8.047,0,0,0-2.385-5.766,7.864,7.864,0,0,0-5.851-2.421,7.99,7.99,0,0,0-5.877,2.379,7.835,7.835,0,0,0-2.393,5.751l-.007,10.908H127.1l.007-10.815a7.839,7.839,0,0,0-2.312-5.808,7.981,7.981,0,0,0-5.826-2.3,8.232,8.232,0,0,0-5.952,2.393A7.279,7.279,0,0,0,110.7,23v.379l.018,10.743-2.926,0,.015-21.578h2.926l0,3.461c.114-.126.227-.243.341-.355a11.379,11.379,0,0,1,15.726.007,11.542,11.542,0,0,1,1.851,2.372,11.8,11.8,0,0,1,1.9-2.371,11.349,11.349,0,0,1,15.714.019,10.277,10.277,0,0,1,3.25,7.648L149.5,34.139Zm-52.693-.023a10.864,10.864,0,0,1-7.861-3.169,10.281,10.281,0,0,1-3.25-7.648,10.276,10.276,0,0,1,3.26-7.647,11.376,11.376,0,0,1,15.738-.006l.949,1.14-8.856,8.58-2.07-2.016,6.879-6.686a8.62,8.62,0,0,0-10.777.922,8,8,0,0,0-.007,11.549,8.586,8.586,0,0,0,11.9,0,7.726,7.726,0,0,0,2.466-5.738h2.756a10.234,10.234,0,0,1-3.248,7.541,10.89,10.89,0,0,1-7.871,3.174ZM69.332,34.1a10.855,10.855,0,0,1-7.859-3.169,10.266,10.266,0,0,1-3.25-7.648,10.273,10.273,0,0,1,3.26-7.647,11.376,11.376,0,0,1,15.736,0l.951,1.137-8.856,8.583-2.072-2.018,6.881-6.684a8.619,8.619,0,0,0-10.778.92,8,8,0,0,0-.007,11.549,8.586,8.586,0,0,0,11.9,0A7.717,7.717,0,0,0,77.7,23.387h2.755A10.227,10.227,0,0,1,77.21,30.93,10.9,10.9,0,0,1,69.338,34.1ZM52.119,34.1l0-3.511c-.114.127-.221.237-.318.333a11.346,11.346,0,0,1-15.738.006,10.277,10.277,0,0,1-3.25-7.648,10.284,10.284,0,0,1,3.26-7.648,11.378,11.378,0,0,1,15.738,0c.1.111.2.229.317.356L52.138,5.5h2.926l-.019,28.6ZM37.94,17.559a8.005,8.005,0,0,0-.007,11.552,8.586,8.586,0,0,0,11.9,0,8,8,0,0,0,.007-11.549,8.213,8.213,0,0,0-5.947-2.4h-.006A8.228,8.228,0,0,0,37.94,17.559Zm-10.6,16.524.007-10.813a7.851,7.851,0,0,0-2.312-5.812,7.983,7.983,0,0,0-5.826-2.3,8.2,8.2,0,0,0-5.95,2.391,7.272,7.272,0,0,0-2.319,5.407v.378l.016,10.743H8.035L8.05,12.5h2.925V15.96c.113-.127.227-.245.341-.356a10.857,10.857,0,0,1,7.852-3.152,10.866,10.866,0,0,1,7.861,3.171,10.278,10.278,0,0,1,3.25,7.65L30.27,34.086Z" transform="translate(76.349)" fill="#404648"/>
        <path id="e_копия_5" data-name="e копия 5" d="M14.005,17.067l3.215,3.141L30.977,6.844,29.5,5.068A16.936,16.936,0,0,0,17.28.142,16.844,16.844,0,0,0,5.065,5.067,16.048,16.048,0,0,0,0,16.979,16.044,16.044,0,0,0,5.039,28.9a16.843,16.843,0,0,0,12.2,4.944A16.876,16.876,0,0,0,29.477,28.9a15.962,15.962,0,0,0,5.048-11.746l-4.116.007a12.194,12.194,0,0,1-4,8.93,12.75,12.75,0,0,1-9.241,3.724,12.736,12.736,0,0,1-9.234-3.741,12.1,12.1,0,0,1-3.814-8.983A12.147,12.147,0,0,1,7.958,8.078,12.744,12.744,0,0,1,17.2,4.355a12.717,12.717,0,0,1,7.494,2.3Z" transform="translate(0.002 0.101)" fill="#404648"/>
        <path id="e_копия_5-2" data-name="e копия 5" d="M32.738,17.067l3.215,3.141L49.71,6.844,48.235,5.068A16.936,16.936,0,0,0,36.012.142,16.843,16.843,0,0,0,23.8,5.067,16.046,16.046,0,0,0,18.73,16.979,16.043,16.043,0,0,0,23.772,28.9a16.842,16.842,0,0,0,12.2,4.944A16.875,16.875,0,0,0,48.209,28.9a15.963,15.963,0,0,0,5.048-11.746l-4.116.007a12.194,12.194,0,0,1-4,8.93A12.75,12.75,0,0,1,35.9,29.818a12.736,12.736,0,0,1-9.234-3.741,12.1,12.1,0,0,1-3.814-8.983A12.149,12.149,0,0,1,26.69,8.078a12.745,12.745,0,0,1,9.241-3.724,12.716,12.716,0,0,1,7.494,2.3Z" transform="translate(11.766 0.101)" fill="#4db05b"/>
      </g>
    </g>
  </g>
</svg>
