<svg xmlns="http://www.w3.org/2000/svg" width="383" height="407" viewBox="0 0 383 407"><defs><style>.a,.d{fill:#4db05b;}.a,.b{fill-rule:evenodd;}.b{fill:#2c2e3e;}.c{fill:#595b62;}</style></defs><g transform="translate(-450.386 -129)"><g transform="translate(457.296 129)"><g transform="translate(0)"><path class="a" d="M657.484,308.248a61.392,61.392,0,0,1-14.493,50.781,60.149,60.149,0,0,1-34.8,18.862h-49.3c-24.342-.556-47.091,6.34-60.894,23.214a67.044,67.044,0,0,0-7.248,11.608,89.739,89.739,0,0,0-4.356,68.194,71.33,71.33,0,0,0,5.8,13.057,68.448,68.448,0,0,0,11.6,14.51c15.17,14.243,40.963,17.591,63.793,15.96,43,1.222,86.024-.968,129.035-1.451.459,21.128-5.6,41.158-20.3,53.684a54.851,54.851,0,0,1-18.847,10.157c-17.411,5.981-37.116,8-56.544,7.254H512.5c-32.388-7.732-61.2-24.893-81.19-50.781-44.238-57.286-23.543-128.57-14.5-152.348,7.912-20.8,18.285-35.627,27.547-44.978,19.885-20.076,46.462-34.663,75.393-37.722H657.484Z" transform="translate(-404.013 -267.621)"/><path class="b" d="M668.409,345.425a6.118,6.118,0,0,1,1.451,4.352c.013,6.067-.929,95.194-1.451,142.191-.669,22.9-7.839,46.806-24.646,59.487a52.35,52.35,0,0,1-39.147,10.157h-87c32.837-1.164,59.376-17.145,69.6-40.625a60.2,60.2,0,0,0,4.35-30.47v-79.8a66.838,66.838,0,0,1,15.948-44.978c15.667-18.017,52.846-21.571,55.093-21.764A7.107,7.107,0,0,1,668.409,345.425Z" transform="translate(-300.885 -235.155)"/><path class="b" d="M596.2,287a39.175,39.175,0,1,1-39.147,39.175A39.175,39.175,0,0,1,596.2,287Z" transform="translate(-264.921 -287)"/></g></g><g transform="translate(450.386 483.71)"><path class="c" d="M0,0H4.763L4.725,52.288,0,52.29ZM261.728,52.232l0-5.365c-.172.19-.333.359-.483.507a17.3,17.3,0,0,1-24.028.007,15.734,15.734,0,0,1-4.962-11.7,15.746,15.746,0,0,1,4.977-11.7,17.349,17.349,0,0,1,24.028-.007q.222.255.483.545l0-5.368,4.467,0L266.2,52.236ZM240.08,26.943a12.252,12.252,0,0,0-.011,17.662,13.094,13.094,0,0,0,18.165.009,12.255,12.255,0,0,0,.011-17.665,13.086,13.086,0,0,0-18.165-.007ZM223.794,52.216l.011-16.611a12.319,12.319,0,0,0-3.642-8.819,12,12,0,0,0-8.933-3.7,12.188,12.188,0,0,0-8.973,3.64,12,12,0,0,0-3.653,8.8L198.594,52.2l-4.541,0,.011-16.542a12,12,0,0,0-3.53-8.884,12.174,12.174,0,0,0-8.895-3.525,12.557,12.557,0,0,0-9.087,3.66,11.143,11.143,0,0,0-3.541,8.268v.58l.027,16.432-4.467,0,.022-33.005,4.467,0,0,5.294c.175-.193.347-.372.521-.542a17.35,17.35,0,0,1,24.01.011,17.649,17.649,0,0,1,2.825,3.628,18.042,18.042,0,0,1,2.906-3.626,17.3,17.3,0,0,1,23.993.029,15.733,15.733,0,0,1,4.962,11.7l-.011,16.542Zm-80.452-.036a16.572,16.572,0,0,1-12-4.848,15.74,15.74,0,0,1-4.962-11.7,15.732,15.732,0,0,1,4.977-11.7,17.346,17.346,0,0,1,24.028-.009l1.45,1.744L143.313,38.8l-3.161-3.084,10.5-10.226A13.143,13.143,0,0,0,134.2,26.9a12.255,12.255,0,0,0-.011,17.665,13.091,13.091,0,0,0,18.165.007,11.828,11.828,0,0,0,3.765-8.776h4.208a15.666,15.666,0,0,1-4.96,11.535,16.611,16.611,0,0,1-12.017,4.854Zm-37.487-.018a16.558,16.558,0,0,1-12-4.848,15.716,15.716,0,0,1-4.962-11.7,15.728,15.728,0,0,1,4.978-11.7,17.346,17.346,0,0,1,24.026-.007l1.452,1.739L105.829,38.781l-3.163-3.086L113.171,25.47a13.141,13.141,0,0,0-16.456,1.407A12.255,12.255,0,0,0,96.7,44.542a13.091,13.091,0,0,0,18.165.007,11.814,11.814,0,0,0,3.767-8.776l4.206,0a15.656,15.656,0,0,1-4.957,11.535,16.62,16.62,0,0,1-12.019,4.852Zm-26.281-.011,0-5.37c-.174.195-.338.363-.485.509a17.3,17.3,0,0,1-24.028.009A15.733,15.733,0,0,1,50.1,35.6a15.744,15.744,0,0,1,4.977-11.7,17.349,17.349,0,0,1,24.028-.007c.148.17.309.35.483.545L79.6,8.406l4.467,0-.029,43.742ZM57.927,26.858a12.26,12.26,0,0,0-.011,17.669,13.091,13.091,0,0,0,18.165.007,12.255,12.255,0,0,0,.011-17.665,12.528,12.528,0,0,0-9.08-3.669H67A12.55,12.55,0,0,0,57.927,26.858ZM41.748,52.133l.011-16.54a12.021,12.021,0,0,0-3.53-8.891,12.177,12.177,0,0,0-8.895-3.516,12.514,12.514,0,0,0-9.085,3.658,11.133,11.133,0,0,0-3.541,8.27v.578l.025,16.432-4.465,0,.022-33.01,4.465,0,0,5.3c.172-.195.347-.374.521-.545a16.56,16.56,0,0,1,11.988-4.821,16.574,16.574,0,0,1,12,4.85,15.734,15.734,0,0,1,4.962,11.7l-.011,16.54Z" transform="translate(116.782 0)"/><path class="c" d="M21.423,26.03l4.918,4.8L47.383,10.393,45.128,7.677A25.9,25.9,0,0,0,26.432.142,25.764,25.764,0,0,0,7.748,7.675,24.546,24.546,0,0,0,0,25.9,24.54,24.54,0,0,0,7.709,44.132a25.763,25.763,0,0,0,18.667,7.562,25.813,25.813,0,0,0,18.712-7.56,24.415,24.415,0,0,0,7.721-17.967l-6.3.011A18.652,18.652,0,0,1,40.4,39.837a19.5,19.5,0,0,1-14.136,5.7,19.48,19.48,0,0,1-14.124-5.722,18.5,18.5,0,0,1-5.834-13.74,18.58,18.58,0,0,1,5.864-13.79,19.493,19.493,0,0,1,14.135-5.7A19.451,19.451,0,0,1,37.771,10.1Z" transform="translate(0.002 0.229)"/><path class="d" d="M40.156,26.03l4.917,4.8L66.116,10.393,63.86,7.677A25.9,25.9,0,0,0,45.164.142,25.762,25.762,0,0,0,26.481,7.675,24.543,24.543,0,0,0,18.73,25.9a24.539,24.539,0,0,0,7.711,18.237,25.761,25.761,0,0,0,18.667,7.562,25.812,25.812,0,0,0,18.712-7.56,24.416,24.416,0,0,0,7.721-17.967l-6.3.011a18.652,18.652,0,0,1-6.112,13.658A19.5,19.5,0,0,1,45,45.534a19.481,19.481,0,0,1-14.124-5.722,18.505,18.505,0,0,1-5.834-13.74,18.582,18.582,0,0,1,5.864-13.79,19.494,19.494,0,0,1,14.136-5.7A19.45,19.45,0,0,1,56.5,10.1Z" transform="translate(27.917 0.229)"/><path class="d" d="M40.156,26.03l4.917,4.8L66.116,10.393,63.86,7.677A25.9,25.9,0,0,0,45.164.142,25.762,25.762,0,0,0,26.481,7.675,24.543,24.543,0,0,0,18.73,25.9a24.539,24.539,0,0,0,7.711,18.237,25.761,25.761,0,0,0,18.667,7.562,25.812,25.812,0,0,0,18.712-7.56,24.416,24.416,0,0,0,7.721-17.967l-6.3.011a18.652,18.652,0,0,1-6.112,13.658A19.5,19.5,0,0,1,45,45.534a19.481,19.481,0,0,1-14.124-5.722,18.505,18.505,0,0,1-5.834-13.74,18.582,18.582,0,0,1,5.864-13.79,19.494,19.494,0,0,1,14.136-5.7A19.45,19.45,0,0,1,56.5,10.1Z" transform="translate(27.917 0.229)"/></g></g></svg>