<svg xmlns="http://www.w3.org/2000/svg" width="198.542" height="30.214" viewBox="0 0 198.542 30.214"><defs><style>.a{fill:#4db05b;}.a,.b{fill-rule:evenodd;}.b{fill:#2c2e3e;}.c{fill:#595b62;}</style></defs><g transform="translate(164.31)"><g transform="translate(0)"><path class="a" d="M427.434,308.248a5.673,5.673,0,0,1-1.339,4.692,5.558,5.558,0,0,1-3.215,1.743h-4.555a6.864,6.864,0,0,0-5.627,2.145,6.193,6.193,0,0,0-.67,1.073,8.292,8.292,0,0,0-.4,6.3,6.587,6.587,0,0,0,.536,1.206,6.325,6.325,0,0,0,1.072,1.341c1.4,1.316,3.785,1.625,5.894,1.475,3.973.113,7.949-.089,11.923-.134a6.183,6.183,0,0,1-1.876,4.96,5.068,5.068,0,0,1-1.741.939,14.563,14.563,0,0,1-5.225.67h-8.171a13.237,13.237,0,0,1-7.5-4.692c-4.088-5.293-2.175-11.88-1.34-14.077a11.944,11.944,0,0,1,2.545-4.156,11.7,11.7,0,0,1,6.966-3.486h12.727Z" transform="translate(-404.014 -304.494)"/><path class="b" d="M531.549,343.994a.566.566,0,0,1,.134.4c0,.561-.086,8.8-.134,13.138-.062,2.116-.724,4.325-2.277,5.5a4.837,4.837,0,0,1-3.617.939h-8.039c3.034-.108,5.486-1.584,6.431-3.754a5.563,5.563,0,0,0,.4-2.815v-7.374a6.176,6.176,0,0,1,1.474-4.156c1.448-1.665,4.883-1.993,5.091-2.011A.657.657,0,0,1,531.549,343.994Z" transform="translate(-497.59 -333.805)"/><path class="b" d="M560.67,287a3.62,3.62,0,1,1-3.617,3.619A3.62,3.62,0,0,1,560.67,287Z" transform="translate(-530.06 -287)"/></g></g><g transform="translate(0)"><path class="c" d="M0,0H2.752L2.73,30.213H0ZM151.23,30.18v-3.1q-.149.165-.279.293a10,10,0,0,1-13.884,0,9.091,9.091,0,0,1-2.867-6.76,9.1,9.1,0,0,1,2.876-6.76,10.024,10.024,0,0,1,13.884,0q.128.147.279.315v-3.1h2.581l-.006,19.117ZM138.721,15.568a7.079,7.079,0,0,0-.006,10.205,7.566,7.566,0,0,0,10.5.005,7.081,7.081,0,0,0,.006-10.207,7.561,7.561,0,0,0-10.5,0Zm-9.41,14.6.006-9.6a7.118,7.118,0,0,0-2.1-5.1,6.934,6.934,0,0,0-5.162-2.138,7.042,7.042,0,0,0-5.185,2.1,6.934,6.934,0,0,0-2.111,5.085l-.006,9.634h-2.624l.006-9.558a6.934,6.934,0,0,0-2.04-5.133,7.034,7.034,0,0,0-5.14-2.037A7.256,7.256,0,0,0,99.7,15.548a6.439,6.439,0,0,0-2.046,4.777v.335l.016,9.495H95.091L95.1,11.085h2.581v3.059c.1-.112.2-.215.3-.313a10.025,10.025,0,0,1,13.873.006,10.2,10.2,0,0,1,1.632,2.1,10.425,10.425,0,0,1,1.679-2.1,10,10,0,0,1,13.863.017,9.091,9.091,0,0,1,2.867,6.76l-.006,9.558ZM82.825,30.15a9.575,9.575,0,0,1-6.934-2.8,9.1,9.1,0,0,1-2.867-6.76,9.09,9.09,0,0,1,2.876-6.76,10.023,10.023,0,0,1,13.884-.005l.838,1.008-7.813,7.588-1.826-1.782,6.067-5.909a7.594,7.594,0,0,0-9.506.815,7.081,7.081,0,0,0-.006,10.207,7.564,7.564,0,0,0,10.5,0,6.834,6.834,0,0,0,2.175-5.071h2.431a9.052,9.052,0,0,1-2.866,6.665,9.6,9.6,0,0,1-6.944,2.8Zm-21.66-.01a9.567,9.567,0,0,1-6.934-2.8,9.081,9.081,0,0,1-2.867-6.76,9.088,9.088,0,0,1,2.876-6.76,10.023,10.023,0,0,1,13.883,0l.839,1-7.812,7.59-1.828-1.783,6.07-5.908a7.593,7.593,0,0,0-9.508.813,7.081,7.081,0,0,0-.009,10.207,7.564,7.564,0,0,0,10.5,0,6.826,6.826,0,0,0,2.177-5.071h2.43a9.046,9.046,0,0,1-2.864,6.665,9.6,9.6,0,0,1-6.945,2.8Zm-15.185-.006v-3.1c-.1.113-.2.21-.28.294a10,10,0,0,1-13.884.005,9.091,9.091,0,0,1-2.867-6.76,9.1,9.1,0,0,1,2.876-6.76,10.024,10.024,0,0,1,13.884,0c.086.1.179.2.279.315l.007-9.263h2.581l-.017,25.275ZM33.471,15.519a7.084,7.084,0,0,0-.006,10.209,7.564,7.564,0,0,0,10.5,0,7.081,7.081,0,0,0,.006-10.207,7.239,7.239,0,0,0-5.247-2.12h-.007a7.252,7.252,0,0,0-5.242,2.114Zm-9.348,14.6.006-9.557a6.946,6.946,0,0,0-2.04-5.137A7.036,7.036,0,0,0,16.95,13.4,7.231,7.231,0,0,0,11.7,15.511a6.433,6.433,0,0,0-2.046,4.779v.334l.014,9.495H7.089L7.1,11.044h2.58v3.062c.1-.113.2-.216.3-.315a9.569,9.569,0,0,1,6.927-2.786,9.577,9.577,0,0,1,6.934,2.8,9.091,9.091,0,0,1,2.867,6.76L26.7,30.126Z"/></g></svg>